G04 Layer: TopLayer*
G04 EasyEDA v6.4.17, 2021-02-26T18:21:57--8:00*
G04 8b8fbf476556458dbc2708442f6af73b,8aa2c519e6c9466aa65df0ec0365893d,10*
G04 Gerber Generator version 0.2*
G04 Scale: 100 percent, Rotated: No, Reflected: No *
G04 Dimensions in millimeters *
G04 leading zeros omitted , absolute positions ,4 integer and 5 decimal *
%FSLAX45Y45*%
%MOMM*%

%ADD11C,0.3200*%
%ADD12C,0.6100*%
%ADD13C,1.8000*%
%ADD14C,1.8796*%

%LPD*%
D11*
X1775713Y-2264918D02*
G01*
X1715262Y-2264918D01*
X1552447Y-2102104D01*
X2552700Y-1790700D02*
G01*
X1529079Y-1790700D01*
X1280413Y-2039365D01*
X1280413Y-2293365D02*
G01*
X1280413Y-2265426D01*
X1515363Y-2030476D01*
X2538475Y-2030476D01*
X2552700Y-2044700D01*
X2552700Y-2298700D02*
G01*
X2520441Y-2266442D01*
X2224023Y-2266442D01*
X1943100Y-2547365D01*
X1280413Y-2547365D01*
X2276855Y-2404871D02*
G01*
X2064765Y-2616707D01*
X1465071Y-2616707D01*
X1280413Y-2801365D01*
X2552700Y-2552700D02*
G01*
X2424429Y-2552700D01*
X2276855Y-2404871D01*
X2552700Y-1536700D02*
G01*
X2063495Y-1536700D01*
X2029713Y-1502918D01*
D13*
G01*
X1280413Y-1531365D03*
G01*
X1280413Y-1785365D03*
G01*
X1280413Y-2039365D03*
G01*
X1280413Y-2293365D03*
G01*
X1280413Y-2547365D03*
G01*
X1280413Y-2801365D03*
D14*
G01*
X2029713Y-2264918D03*
G01*
X2029713Y-1502918D03*
G01*
X1775713Y-2264918D03*
G01*
X1775713Y-1502918D03*
G01*
X1660270Y-2852851D03*
G01*
X2276729Y-2404948D03*
D13*
G01*
X2552700Y-2552700D03*
G01*
X2552700Y-2806700D03*
G01*
X2552700Y-1536700D03*
G01*
X2552700Y-1790700D03*
G01*
X2552700Y-2044700D03*
G01*
X2552700Y-2298700D03*
D12*
G01*
X1552447Y-2102104D03*
M02*
