G04 Layer: BottomSilkLayer*
G04 EasyEDA v6.4.17, 2021-02-26T18:21:57--8:00*
G04 8b8fbf476556458dbc2708442f6af73b,8aa2c519e6c9466aa65df0ec0365893d,10*
G04 Gerber Generator version 0.2*
G04 Scale: 100 percent, Rotated: No, Reflected: No *
G04 Dimensions in millimeters *
G04 leading zeros omitted , absolute positions ,4 integer and 5 decimal *
%FSLAX45Y45*%
%MOMM*%

%ADD15C,0.2032*%

%LPD*%
D15*
X1574800Y-2657347D02*
G01*
X1510029Y-2754376D01*
X1510029Y-2657347D02*
G01*
X1574800Y-2754376D01*
X1456689Y-2657347D02*
G01*
X1470405Y-2661920D01*
X1474978Y-2671063D01*
X1474978Y-2680462D01*
X1470405Y-2689605D01*
X1461262Y-2694178D01*
X1442720Y-2698750D01*
X1428750Y-2703576D01*
X1419605Y-2712720D01*
X1415034Y-2721863D01*
X1415034Y-2735834D01*
X1419605Y-2744978D01*
X1424178Y-2749550D01*
X1438147Y-2754376D01*
X1456689Y-2754376D01*
X1470405Y-2749550D01*
X1474978Y-2744978D01*
X1479550Y-2735834D01*
X1479550Y-2721863D01*
X1474978Y-2712720D01*
X1465834Y-2703576D01*
X1451863Y-2698750D01*
X1433576Y-2694178D01*
X1424178Y-2689605D01*
X1419605Y-2680462D01*
X1419605Y-2671063D01*
X1424178Y-2661920D01*
X1438147Y-2657347D01*
X1456689Y-2657347D01*
X1610613Y-2483863D02*
G01*
X1545844Y-2580891D01*
X1545844Y-2483863D02*
G01*
X1610613Y-2580891D01*
X1450847Y-2483863D02*
G01*
X1497076Y-2580891D01*
X1515363Y-2483863D02*
G01*
X1450847Y-2483863D01*
X1605279Y-2264915D02*
G01*
X1540510Y-2361943D01*
X1540510Y-2264915D02*
G01*
X1605279Y-2361943D01*
X1454657Y-2278631D02*
G01*
X1459229Y-2269487D01*
X1473200Y-2264915D01*
X1482344Y-2264915D01*
X1496313Y-2269487D01*
X1505457Y-2283457D01*
X1510029Y-2306317D01*
X1510029Y-2329431D01*
X1505457Y-2347973D01*
X1496313Y-2357117D01*
X1482344Y-2361943D01*
X1477771Y-2361943D01*
X1464055Y-2357117D01*
X1454657Y-2347973D01*
X1450086Y-2334257D01*
X1450086Y-2329431D01*
X1454657Y-2315715D01*
X1464055Y-2306317D01*
X1477771Y-2301745D01*
X1482344Y-2301745D01*
X1496313Y-2306317D01*
X1505457Y-2315715D01*
X1510029Y-2329431D01*
X1605279Y-1998215D02*
G01*
X1540510Y-2095243D01*
X1540510Y-1998215D02*
G01*
X1605279Y-2095243D01*
X1454657Y-1998215D02*
G01*
X1500886Y-1998215D01*
X1505457Y-2039617D01*
X1500886Y-2035045D01*
X1487170Y-2030473D01*
X1473200Y-2030473D01*
X1459229Y-2035045D01*
X1450086Y-2044443D01*
X1445513Y-2058159D01*
X1445513Y-2067557D01*
X1450086Y-2081273D01*
X1459229Y-2090417D01*
X1473200Y-2095243D01*
X1487170Y-2095243D01*
X1500886Y-2090417D01*
X1505457Y-2085845D01*
X1510029Y-2076701D01*
X1592579Y-1756915D02*
G01*
X1527810Y-1853943D01*
X1527810Y-1756915D02*
G01*
X1592579Y-1853943D01*
X1451355Y-1756915D02*
G01*
X1497329Y-1821431D01*
X1428242Y-1821431D01*
X1451355Y-1756915D02*
G01*
X1451355Y-1853943D01*
X1605279Y-1502915D02*
G01*
X1540510Y-1599943D01*
X1540510Y-1502915D02*
G01*
X1605279Y-1599943D01*
X1500886Y-1502915D02*
G01*
X1450086Y-1502915D01*
X1477771Y-1539745D01*
X1464055Y-1539745D01*
X1454657Y-1544317D01*
X1450086Y-1549143D01*
X1445513Y-1562859D01*
X1445513Y-1572257D01*
X1450086Y-1585973D01*
X1459229Y-1595117D01*
X1473200Y-1599943D01*
X1487170Y-1599943D01*
X1500886Y-1595117D01*
X1505457Y-1590545D01*
X1510029Y-1581401D01*
X2398013Y-1442465D02*
G01*
X2398013Y-1539494D01*
X2398013Y-1442465D02*
G01*
X2356357Y-1442465D01*
X2342642Y-1447037D01*
X2338070Y-1451610D01*
X2333244Y-1461007D01*
X2333244Y-1474723D01*
X2338070Y-1483868D01*
X2342642Y-1488694D01*
X2356357Y-1493265D01*
X2398013Y-1493265D01*
X2302763Y-1461007D02*
G01*
X2293620Y-1456181D01*
X2279904Y-1442465D01*
X2279904Y-1539494D01*
X2392679Y-1718820D02*
G01*
X2392679Y-1815848D01*
X2392679Y-1718820D02*
G01*
X2351023Y-1718820D01*
X2337307Y-1723392D01*
X2332736Y-1727964D01*
X2327910Y-1737362D01*
X2327910Y-1751078D01*
X2332736Y-1760222D01*
X2337307Y-1765048D01*
X2351023Y-1769620D01*
X2392679Y-1769620D01*
X2288286Y-1718820D02*
G01*
X2237486Y-1718820D01*
X2265171Y-1755650D01*
X2251455Y-1755650D01*
X2242057Y-1760222D01*
X2237486Y-1765048D01*
X2232913Y-1778764D01*
X2232913Y-1788162D01*
X2237486Y-1801878D01*
X2246629Y-1811022D01*
X2260600Y-1815848D01*
X2274570Y-1815848D01*
X2288286Y-1811022D01*
X2292857Y-1806450D01*
X2297429Y-1797306D01*
X2397249Y-1972820D02*
G01*
X2397249Y-2069848D01*
X2397249Y-1972820D02*
G01*
X2355593Y-1972820D01*
X2341877Y-1977392D01*
X2337305Y-1981964D01*
X2332479Y-1991362D01*
X2332479Y-2005078D01*
X2337305Y-2014222D01*
X2341877Y-2019048D01*
X2355593Y-2023620D01*
X2397249Y-2023620D01*
X2256025Y-1972820D02*
G01*
X2301999Y-2037336D01*
X2232911Y-2037336D01*
X2256025Y-1972820D02*
G01*
X2256025Y-2069848D01*
X2398013Y-2179065D02*
G01*
X2398013Y-2276094D01*
X2398013Y-2179065D02*
G01*
X2356357Y-2179065D01*
X2342642Y-2183637D01*
X2338070Y-2188210D01*
X2333244Y-2197607D01*
X2333244Y-2211323D01*
X2338070Y-2220468D01*
X2342642Y-2225294D01*
X2356357Y-2229865D01*
X2398013Y-2229865D01*
X2298192Y-2202179D02*
G01*
X2298192Y-2197607D01*
X2293620Y-2188210D01*
X2289047Y-2183637D01*
X2279904Y-2179065D01*
X2261362Y-2179065D01*
X2251963Y-2183637D01*
X2247392Y-2188210D01*
X2242820Y-2197607D01*
X2242820Y-2206752D01*
X2247392Y-2215895D01*
X2256789Y-2229865D01*
X2302763Y-2276094D01*
X2238247Y-2276094D01*
M02*
