G04 Layer: TopSolderMaskLayer*
G04 EasyEDA v6.4.17, 2021-02-26T18:21:57--8:00*
G04 bf267e6e37ea4bb39f0b1c92622b1e3b,8aa2c519e6c9466aa65df0ec0365893d,10*
G04 Gerber Generator version 0.2*
G04 Scale: 100 percent, Rotated: No, Reflected: No *
G04 Dimensions in millimeters *
G04 leading zeros omitted , absolute positions ,4 integer and 5 decimal *
%FSLAX45Y45*%
%MOMM*%

%ADD23C,2.0032*%

%LPD*%
G36*
X803655Y8250173D02*
G01*
X803655Y8360410D01*
X1049020Y8360410D01*
X1049020Y8250173D01*
G37*
G36*
X803655Y8125205D02*
G01*
X803655Y8235442D01*
X1049020Y8235442D01*
X1049020Y8125205D01*
G37*
G36*
X803655Y7995158D02*
G01*
X803655Y8105394D01*
X1103884Y8105394D01*
X1103884Y7995158D01*
G37*
G36*
X803655Y7870189D02*
G01*
X803655Y7980426D01*
X1049020Y7980426D01*
X1049020Y7870189D01*
G37*
G36*
X1338579Y7870189D02*
G01*
X1338579Y7980426D01*
X1583944Y7980426D01*
X1583944Y7870189D01*
G37*
G36*
X1338579Y7995158D02*
G01*
X1338579Y8105394D01*
X1583944Y8105394D01*
X1583944Y7995158D01*
G37*
G36*
X1338579Y8125205D02*
G01*
X1338579Y8235442D01*
X1583944Y8235442D01*
X1583944Y8125205D01*
G37*
G36*
X1338579Y8250173D02*
G01*
X1338579Y8360410D01*
X1583944Y8360410D01*
X1583944Y8250173D01*
G37*
G36*
X852423Y7367523D02*
G01*
X852423Y7567676D01*
X1052576Y7567676D01*
X1052576Y7367523D01*
G37*
D23*
G01*
X1206500Y7467600D03*
G01*
X1460500Y7467600D03*
G01*
X1714500Y7467600D03*
G36*
X1682750Y7818628D02*
G01*
X1682750Y7954771D01*
X1847850Y7954771D01*
X1847850Y7818628D01*
G37*
G36*
X1682750Y8021828D02*
G01*
X1682750Y8157971D01*
X1847850Y8157971D01*
X1847850Y8021828D01*
G37*
G36*
X795528Y8616950D02*
G01*
X795528Y8782050D01*
X931671Y8782050D01*
X931671Y8616950D01*
G37*
G36*
X998728Y8616950D02*
G01*
X998728Y8782050D01*
X1134871Y8782050D01*
X1134871Y8616950D01*
G37*
G36*
X1214628Y8616950D02*
G01*
X1214628Y8782050D01*
X1350771Y8782050D01*
X1350771Y8616950D01*
G37*
G36*
X1417828Y8616950D02*
G01*
X1417828Y8782050D01*
X1553971Y8782050D01*
X1553971Y8616950D01*
G37*
G36*
X1405128Y8883650D02*
G01*
X1405128Y9048750D01*
X1541271Y9048750D01*
X1541271Y8883650D01*
G37*
G36*
X1608328Y8883650D02*
G01*
X1608328Y9048750D01*
X1744471Y9048750D01*
X1744471Y8883650D01*
G37*
G36*
X808228Y8883650D02*
G01*
X808228Y9048750D01*
X944371Y9048750D01*
X944371Y8883650D01*
G37*
G36*
X1011428Y8883650D02*
G01*
X1011428Y9048750D01*
X1147571Y9048750D01*
X1147571Y8883650D01*
G37*
M02*
