G04 Layer: TopSilkLayer*
G04 EasyEDA v6.4.17, 2021-02-26T18:21:57--8:00*
G04 bf267e6e37ea4bb39f0b1c92622b1e3b,8aa2c519e6c9466aa65df0ec0365893d,10*
G04 Gerber Generator version 0.2*
G04 Scale: 100 percent, Rotated: No, Reflected: No *
G04 Dimensions in millimeters *
G04 leading zeros omitted , absolute positions ,4 integer and 5 decimal *
%FSLAX45Y45*%
%MOMM*%

%ADD10C,0.2540*%
%ADD17C,0.3048*%
%ADD18C,0.1999*%
%ADD19C,0.8128*%
%ADD20C,0.2032*%
%ADD21C,0.1524*%

%LPD*%
D20*
X1680210Y7727187D02*
G01*
X1680210Y7654544D01*
X1675637Y7640828D01*
X1671065Y7636255D01*
X1661921Y7631684D01*
X1648205Y7631684D01*
X1639315Y7636255D01*
X1680210Y7713471D02*
G01*
X1671065Y7722615D01*
X1661921Y7727187D01*
X1648205Y7727187D01*
X1639315Y7722615D01*
X1630171Y7713471D01*
X1625600Y7700010D01*
X1625600Y7690865D01*
X1630171Y7677150D01*
X1639315Y7668005D01*
X1648205Y7663434D01*
X1661921Y7663434D01*
X1671065Y7668005D01*
X1680210Y7677150D01*
X1710181Y7727187D02*
G01*
X1710181Y7663434D01*
X1710181Y7708900D02*
G01*
X1723897Y7722615D01*
X1732787Y7727187D01*
X1746504Y7727187D01*
X1755647Y7722615D01*
X1760220Y7708900D01*
X1760220Y7663434D01*
X1844802Y7758937D02*
G01*
X1844802Y7663434D01*
X1844802Y7713471D02*
G01*
X1835657Y7722615D01*
X1826513Y7727187D01*
X1812797Y7727187D01*
X1803907Y7722615D01*
X1794763Y7713471D01*
X1790192Y7700010D01*
X1790192Y7690865D01*
X1794763Y7677150D01*
X1803907Y7668005D01*
X1812797Y7663434D01*
X1826513Y7663434D01*
X1835657Y7668005D01*
X1844802Y7677150D01*
X1383537Y7713471D02*
G01*
X1378965Y7722615D01*
X1365250Y7727187D01*
X1351787Y7727187D01*
X1338071Y7722615D01*
X1333500Y7713471D01*
X1338071Y7704581D01*
X1347215Y7700010D01*
X1369821Y7695437D01*
X1378965Y7690865D01*
X1383537Y7681721D01*
X1383537Y7677150D01*
X1378965Y7668005D01*
X1365250Y7663434D01*
X1351787Y7663434D01*
X1338071Y7668005D01*
X1333500Y7677150D01*
X1468120Y7758937D02*
G01*
X1468120Y7663434D01*
X1468120Y7713471D02*
G01*
X1458976Y7722615D01*
X1449831Y7727187D01*
X1436115Y7727187D01*
X1427226Y7722615D01*
X1418081Y7713471D01*
X1413510Y7700010D01*
X1413510Y7690865D01*
X1418081Y7677150D01*
X1427226Y7668005D01*
X1436115Y7663434D01*
X1449831Y7663434D01*
X1458976Y7668005D01*
X1468120Y7677150D01*
X1552702Y7727187D02*
G01*
X1552702Y7663434D01*
X1552702Y7713471D02*
G01*
X1543557Y7722615D01*
X1534413Y7727187D01*
X1520697Y7727187D01*
X1511807Y7722615D01*
X1502663Y7713471D01*
X1498092Y7700010D01*
X1498092Y7690865D01*
X1502663Y7677150D01*
X1511807Y7668005D01*
X1520697Y7663434D01*
X1534413Y7663434D01*
X1543557Y7668005D01*
X1552702Y7677150D01*
X1116837Y7713471D02*
G01*
X1112265Y7722615D01*
X1098550Y7727187D01*
X1085087Y7727187D01*
X1071371Y7722615D01*
X1066800Y7713471D01*
X1071371Y7704581D01*
X1080515Y7700010D01*
X1103121Y7695437D01*
X1112265Y7690865D01*
X1116837Y7681721D01*
X1116837Y7677150D01*
X1112265Y7668005D01*
X1098550Y7663434D01*
X1085087Y7663434D01*
X1071371Y7668005D01*
X1066800Y7677150D01*
X1201420Y7713471D02*
G01*
X1192276Y7722615D01*
X1183131Y7727187D01*
X1169415Y7727187D01*
X1160526Y7722615D01*
X1151381Y7713471D01*
X1146810Y7700010D01*
X1146810Y7690865D01*
X1151381Y7677150D01*
X1160526Y7668005D01*
X1169415Y7663434D01*
X1183131Y7663434D01*
X1192276Y7668005D01*
X1201420Y7677150D01*
X1231392Y7758937D02*
G01*
X1231392Y7663434D01*
X847344Y7758937D02*
G01*
X897381Y7758937D01*
X869950Y7722615D01*
X883665Y7722615D01*
X892810Y7718044D01*
X897381Y7713471D01*
X901954Y7700010D01*
X901954Y7690865D01*
X897381Y7677150D01*
X888237Y7668005D01*
X874521Y7663434D01*
X860805Y7663434D01*
X847344Y7668005D01*
X842771Y7672578D01*
X838200Y7681721D01*
X931926Y7727187D02*
G01*
X959104Y7663434D01*
X986281Y7727187D02*
G01*
X959104Y7663434D01*
D21*
X1728978Y8191500D02*
G01*
X1724913Y8199628D01*
X1712468Y8212073D01*
X1798573Y8212073D01*
X1712468Y8263381D02*
G01*
X1716786Y8251189D01*
X1728978Y8243062D01*
X1749297Y8238997D01*
X1761744Y8238997D01*
X1782063Y8243062D01*
X1794510Y8251189D01*
X1798573Y8263381D01*
X1798573Y8271763D01*
X1794510Y8283955D01*
X1782063Y8292084D01*
X1761744Y8296147D01*
X1749297Y8296147D01*
X1728978Y8292084D01*
X1716786Y8283955D01*
X1712468Y8271763D01*
X1712468Y8263381D01*
X1712468Y8347710D02*
G01*
X1716786Y8335518D01*
X1728978Y8327389D01*
X1749297Y8323326D01*
X1761744Y8323326D01*
X1782063Y8327389D01*
X1794510Y8335518D01*
X1798573Y8347710D01*
X1798573Y8355837D01*
X1794510Y8368284D01*
X1782063Y8376412D01*
X1761744Y8380476D01*
X1749297Y8380476D01*
X1728978Y8376412D01*
X1716786Y8368284D01*
X1712468Y8355837D01*
X1712468Y8347710D01*
X1712468Y8407400D02*
G01*
X1798573Y8407400D01*
X1712468Y8407400D02*
G01*
X1798573Y8464804D01*
X1712468Y8464804D02*
G01*
X1798573Y8464804D01*
X1712468Y8491728D02*
G01*
X1798573Y8491728D01*
X1712468Y8491728D02*
G01*
X1712468Y8545068D01*
X1753615Y8491728D02*
G01*
X1753615Y8524494D01*
X812037Y8549131D02*
G01*
X799592Y8544813D01*
X791463Y8532621D01*
X787400Y8512302D01*
X787400Y8499855D01*
X791463Y8479536D01*
X799592Y8467089D01*
X812037Y8463026D01*
X820165Y8463026D01*
X832357Y8467089D01*
X840486Y8479536D01*
X844550Y8499855D01*
X844550Y8512302D01*
X840486Y8532621D01*
X832357Y8544813D01*
X820165Y8549131D01*
X812037Y8549131D01*
X871728Y8549131D02*
G01*
X928878Y8463026D01*
X928878Y8549131D02*
G01*
X871728Y8463026D01*
X1013205Y8549131D02*
G01*
X972312Y8463026D01*
X956055Y8549131D02*
G01*
X1013205Y8549131D01*
X1089405Y8536686D02*
G01*
X1085342Y8544813D01*
X1072895Y8549131D01*
X1064768Y8549131D01*
X1052576Y8544813D01*
X1044194Y8532621D01*
X1040129Y8512302D01*
X1040129Y8491728D01*
X1044194Y8475471D01*
X1052576Y8467089D01*
X1064768Y8463026D01*
X1068831Y8463026D01*
X1081023Y8467089D01*
X1089405Y8475471D01*
X1093470Y8487663D01*
X1093470Y8491728D01*
X1089405Y8503920D01*
X1081023Y8512302D01*
X1068831Y8516365D01*
X1064768Y8516365D01*
X1052576Y8512302D01*
X1044194Y8503920D01*
X1040129Y8491728D01*
X1218437Y8549131D02*
G01*
X1205992Y8544813D01*
X1197863Y8532621D01*
X1193800Y8512302D01*
X1193800Y8499855D01*
X1197863Y8479536D01*
X1205992Y8467089D01*
X1218437Y8463026D01*
X1226565Y8463026D01*
X1238757Y8467089D01*
X1246886Y8479536D01*
X1250950Y8499855D01*
X1250950Y8512302D01*
X1246886Y8532621D01*
X1238757Y8544813D01*
X1226565Y8549131D01*
X1218437Y8549131D01*
X1278128Y8549131D02*
G01*
X1335278Y8463026D01*
X1335278Y8549131D02*
G01*
X1278128Y8463026D01*
X1419605Y8549131D02*
G01*
X1378712Y8463026D01*
X1362455Y8549131D02*
G01*
X1419605Y8549131D01*
X1503934Y8549131D02*
G01*
X1463039Y8463026D01*
X1446529Y8549131D02*
G01*
X1503934Y8549131D01*
X1881606Y9029674D02*
G01*
X1795500Y9029674D01*
X1881606Y9029674D02*
G01*
X1881606Y8992844D01*
X1877542Y8980652D01*
X1873224Y8976588D01*
X1865096Y8972524D01*
X1856968Y8972524D01*
X1848840Y8976588D01*
X1844776Y8980652D01*
X1840712Y8992844D01*
X1840712Y9029674D01*
X1840712Y9000972D02*
G01*
X1795500Y8972524D01*
X1881606Y8937218D02*
G01*
X1881606Y8892260D01*
X1848840Y8916898D01*
X1848840Y8904452D01*
X1844776Y8896324D01*
X1840712Y8892260D01*
X1828266Y8888196D01*
X1820138Y8888196D01*
X1807946Y8892260D01*
X1799818Y8900388D01*
X1795500Y8912580D01*
X1795500Y8925026D01*
X1799818Y8937218D01*
X1803882Y8941282D01*
X1812010Y8945346D01*
X1297406Y9055074D02*
G01*
X1211300Y9055074D01*
X1297406Y9055074D02*
G01*
X1297406Y9018244D01*
X1293342Y9006052D01*
X1289024Y9001988D01*
X1280896Y8997924D01*
X1272768Y8997924D01*
X1264640Y9001988D01*
X1260576Y9006052D01*
X1256512Y9018244D01*
X1256512Y9055074D01*
X1256512Y9026372D02*
G01*
X1211300Y8997924D01*
X1297406Y8929852D02*
G01*
X1240002Y8970746D01*
X1240002Y8909532D01*
X1297406Y8929852D02*
G01*
X1211300Y8929852D01*
D17*
X873810Y8375294D02*
G01*
X873810Y8425306D01*
X1513789Y8425306D01*
X1513789Y8375294D01*
X1513789Y7855305D02*
G01*
X1513789Y7805293D01*
X873810Y7805293D01*
X873810Y7855305D01*
D10*
X800100Y7620000D02*
G01*
X1866900Y7620000D01*
X1866900Y7315200D01*
X800100Y7315200D01*
X800100Y7620000D01*
X1079500Y7620000D02*
G01*
X1079500Y7315200D01*
D18*
X1868779Y8043773D02*
G01*
X1868779Y8175777D01*
X1661769Y8175777D01*
X1661769Y8043773D01*
X1868779Y7930565D02*
G01*
X1868779Y7798562D01*
X1661769Y7798562D01*
X1661769Y7930565D01*
X1020673Y8596020D02*
G01*
X1152677Y8596020D01*
X1152677Y8803030D01*
X1020673Y8803030D01*
X907465Y8596020D02*
G01*
X775462Y8596020D01*
X775462Y8803030D01*
X907465Y8803030D01*
X1439773Y8596020D02*
G01*
X1571777Y8596020D01*
X1571777Y8803030D01*
X1439773Y8803030D01*
X1326565Y8596020D02*
G01*
X1194562Y8596020D01*
X1194562Y8803030D01*
X1326565Y8803030D01*
X1630273Y8862720D02*
G01*
X1762277Y8862720D01*
X1762277Y9069730D01*
X1630273Y9069730D01*
X1517065Y8862720D02*
G01*
X1385062Y8862720D01*
X1385062Y9069730D01*
X1517065Y9069730D01*
X1033373Y8862720D02*
G01*
X1165377Y8862720D01*
X1165377Y9069730D01*
X1033373Y9069730D01*
X920165Y8862720D02*
G01*
X788162Y8862720D01*
X788162Y9069730D01*
X920165Y9069730D01*
D19*
G75*
G01*
X1117600Y8305800D02*
G03*
X1114501Y8297469I-12700J-18D01*
M02*
