G04 Layer: TopLayer*
G04 EasyEDA v6.4.17, 2021-02-26T18:21:57--8:00*
G04 bf267e6e37ea4bb39f0b1c92622b1e3b,8aa2c519e6c9466aa65df0ec0365893d,10*
G04 Gerber Generator version 0.2*
G04 Scale: 100 percent, Rotated: No, Reflected: No *
G04 Dimensions in millimeters *
G04 leading zeros omitted , absolute positions ,4 integer and 5 decimal *
%FSLAX45Y45*%
%MOMM*%

%ADD11C,0.2600*%
%ADD12C,0.6100*%
%ADD13R,1.4500X1.1600*%
%ADD16C,1.8000*%

%LPD*%
D11*
X1390650Y8180323D02*
G01*
X1379728Y8180323D01*
X1379728Y8180323D02*
G01*
X1319529Y8180323D01*
X1461262Y8180323D02*
G01*
X1390650Y8180323D01*
X876300Y8966200D02*
G01*
X876300Y8864345D01*
X1460500Y7467600D02*
G01*
X1319529Y7608570D01*
X1319529Y7863839D01*
X1319529Y7863839D02*
G01*
X1319529Y8180323D01*
X876300Y8864345D02*
G01*
X950976Y8789924D01*
X950976Y8612378D01*
X1128521Y8434578D01*
X1160271Y8434578D01*
X1221739Y8373110D01*
X1221739Y8071104D01*
X1192276Y8041386D01*
X1192276Y7896860D01*
X1225295Y7863839D01*
X1319529Y7863839D01*
X1071626Y7467600D02*
G01*
X1071626Y7407910D01*
X1137665Y7342123D01*
X1507997Y7342123D01*
X1595120Y7428992D01*
X1595120Y7850631D01*
X1602994Y7858760D01*
X1602994Y7925308D01*
X952500Y7467600D02*
G01*
X1071626Y7467600D01*
X1532128Y8050276D02*
G01*
X1532128Y7925308D01*
X1461262Y7925308D02*
G01*
X1532128Y7925308D01*
X1532128Y7925308D02*
G01*
X1602994Y7925308D01*
X1461262Y8050276D02*
G01*
X1532128Y8050276D01*
X1532128Y8050276D02*
G01*
X1602994Y8050276D01*
X1676400Y8966200D02*
G01*
X1589278Y8966200D01*
X1765300Y8089900D02*
G01*
X1642618Y8089900D01*
X1642618Y8089900D02*
G01*
X1602994Y8050276D01*
X1079500Y8864345D02*
G01*
X1066800Y8851645D01*
X1066800Y8699500D01*
X1079500Y8966200D02*
G01*
X1079500Y8864345D01*
X1384300Y8860789D02*
G01*
X1083055Y8860789D01*
X1079500Y8864345D01*
X1642618Y8089900D02*
G01*
X1642618Y8342121D01*
X1384300Y8600439D01*
X1384300Y8860789D01*
X1384300Y8860789D02*
G01*
X1549145Y8860789D01*
X1589278Y8900668D01*
X1589278Y8966200D01*
X953770Y8050276D02*
G01*
X1122934Y8050276D01*
X863600Y8699500D02*
G01*
X863600Y8597645D01*
X1485900Y8597645D02*
G01*
X1549654Y8534145D01*
X1549654Y8519668D01*
X1135379Y8374887D02*
G01*
X1086357Y8374887D01*
X863600Y8597645D01*
X1135379Y8374887D02*
G01*
X1179576Y8330945D01*
X1179576Y8106663D01*
X1122934Y8050276D01*
X1485900Y8699500D02*
G01*
X1485900Y8597645D01*
X1714500Y7467600D02*
G01*
X1765300Y7518400D01*
X1765300Y7886700D01*
X1282700Y8699500D02*
G01*
X1282700Y8597645D01*
X1282700Y8597645D02*
G01*
X1264157Y8579104D01*
X1264157Y7933944D01*
X1256029Y7926070D01*
X1119886Y8176005D02*
G01*
X1072387Y8176005D01*
X1068070Y8180323D01*
X926337Y8180323D02*
G01*
X1068070Y8180323D01*
X926337Y8305292D02*
G01*
X1068070Y8305292D01*
X1088389Y8290305D02*
G01*
X1083055Y8290305D01*
X1068070Y8305292D01*
X1473200Y8966200D02*
G01*
X1367789Y8966200D01*
X1473200Y8966200D02*
G01*
X1367789Y8966200D01*
G36*
X813790Y8260308D02*
G01*
X813790Y8350300D01*
X1038809Y8350300D01*
X1038809Y8260308D01*
G37*
G36*
X813790Y8135289D02*
G01*
X813790Y8225307D01*
X1038809Y8225307D01*
X1038809Y8135289D01*
G37*
G36*
X813790Y8005292D02*
G01*
X813790Y8095310D01*
X1093800Y8095310D01*
X1093800Y8005292D01*
G37*
G36*
X813790Y7880299D02*
G01*
X813790Y7970291D01*
X1038809Y7970291D01*
X1038809Y7880299D01*
G37*
G36*
X1348790Y7880299D02*
G01*
X1348790Y7970291D01*
X1573809Y7970291D01*
X1573809Y7880299D01*
G37*
G36*
X1348790Y8005292D02*
G01*
X1348790Y8095310D01*
X1573809Y8095310D01*
X1573809Y8005292D01*
G37*
G36*
X1348790Y8135289D02*
G01*
X1348790Y8225307D01*
X1573809Y8225307D01*
X1573809Y8135289D01*
G37*
G36*
X1348790Y8260308D02*
G01*
X1348790Y8350300D01*
X1573809Y8350300D01*
X1573809Y8260308D01*
G37*
D13*
G01*
X1765300Y7886700D03*
G01*
X1765300Y8089900D03*
G36*
X805599Y8771999D02*
G01*
X921600Y8771999D01*
X921600Y8627000D01*
X805599Y8627000D01*
G37*
G36*
X1008799Y8771999D02*
G01*
X1124800Y8771999D01*
X1124800Y8627000D01*
X1008799Y8627000D01*
G37*
G36*
X1224699Y8771999D02*
G01*
X1340700Y8771999D01*
X1340700Y8627000D01*
X1224699Y8627000D01*
G37*
G36*
X1427899Y8771999D02*
G01*
X1543900Y8771999D01*
X1543900Y8627000D01*
X1427899Y8627000D01*
G37*
G36*
X1415199Y9038699D02*
G01*
X1531200Y9038699D01*
X1531200Y8893700D01*
X1415199Y8893700D01*
G37*
G36*
X1618399Y9038699D02*
G01*
X1734400Y9038699D01*
X1734400Y8893700D01*
X1618399Y8893700D01*
G37*
G36*
X818299Y9038699D02*
G01*
X934300Y9038699D01*
X934300Y8893700D01*
X818299Y8893700D01*
G37*
G36*
X1021499Y9038699D02*
G01*
X1137500Y9038699D01*
X1137500Y8893700D01*
X1021499Y8893700D01*
G37*
G36*
X862500Y7557599D02*
G01*
X1042499Y7557599D01*
X1042499Y7377600D01*
X862500Y7377600D01*
G37*
D16*
G01*
X1206500Y7467600D03*
G01*
X1460500Y7467600D03*
G01*
X1714500Y7467600D03*
D12*
G01*
X1549654Y8519668D03*
G01*
X1135379Y8374887D03*
G01*
X1256029Y7926070D03*
G01*
X1119886Y8176005D03*
G01*
X1088389Y8290305D03*
G01*
X1367789Y8966200D03*
M02*
