G04 Layer: TopPasteMaskLayer*
G04 EasyEDA v6.4.17, 2021-02-26T18:21:57--8:00*
G04 bf267e6e37ea4bb39f0b1c92622b1e3b,8aa2c519e6c9466aa65df0ec0365893d,10*
G04 Gerber Generator version 0.2*
G04 Scale: 100 percent, Rotated: No, Reflected: No *
G04 Dimensions in millimeters *
G04 leading zeros omitted , absolute positions ,4 integer and 5 decimal *
%FSLAX45Y45*%
%MOMM*%

%ADD13R,1.4500X1.1600*%

%LPD*%
G36*
X813790Y8260308D02*
G01*
X813790Y8350300D01*
X1038809Y8350300D01*
X1038809Y8260308D01*
G37*
G36*
X813790Y8135289D02*
G01*
X813790Y8225307D01*
X1038809Y8225307D01*
X1038809Y8135289D01*
G37*
G36*
X813790Y8005292D02*
G01*
X813790Y8095310D01*
X1093800Y8095310D01*
X1093800Y8005292D01*
G37*
G36*
X813790Y7880299D02*
G01*
X813790Y7970291D01*
X1038809Y7970291D01*
X1038809Y7880299D01*
G37*
G36*
X1348790Y7880299D02*
G01*
X1348790Y7970291D01*
X1573809Y7970291D01*
X1573809Y7880299D01*
G37*
G36*
X1348790Y8005292D02*
G01*
X1348790Y8095310D01*
X1573809Y8095310D01*
X1573809Y8005292D01*
G37*
G36*
X1348790Y8135289D02*
G01*
X1348790Y8225307D01*
X1573809Y8225307D01*
X1573809Y8135289D01*
G37*
G36*
X1348790Y8260308D02*
G01*
X1348790Y8350300D01*
X1573809Y8350300D01*
X1573809Y8260308D01*
G37*
D13*
G01*
X1765300Y7886700D03*
G01*
X1765300Y8089900D03*
G36*
X805599Y8771999D02*
G01*
X921600Y8771999D01*
X921600Y8627000D01*
X805599Y8627000D01*
G37*
G36*
X1008799Y8771999D02*
G01*
X1124800Y8771999D01*
X1124800Y8627000D01*
X1008799Y8627000D01*
G37*
G36*
X1224699Y8771999D02*
G01*
X1340700Y8771999D01*
X1340700Y8627000D01*
X1224699Y8627000D01*
G37*
G36*
X1427899Y8771999D02*
G01*
X1543900Y8771999D01*
X1543900Y8627000D01*
X1427899Y8627000D01*
G37*
G36*
X1415199Y9038699D02*
G01*
X1531200Y9038699D01*
X1531200Y8893700D01*
X1415199Y8893700D01*
G37*
G36*
X1618399Y9038699D02*
G01*
X1734400Y9038699D01*
X1734400Y8893700D01*
X1618399Y8893700D01*
G37*
G36*
X818299Y9038699D02*
G01*
X934300Y9038699D01*
X934300Y8893700D01*
X818299Y8893700D01*
G37*
G36*
X1021499Y9038699D02*
G01*
X1137500Y9038699D01*
X1137500Y8893700D01*
X1021499Y8893700D01*
G37*
M02*
